<svg width="105" height="100" viewBox="0 0 105 100" fill="none" xmlns="http://www.w3.org/2000/svg">
<g id="Clip path group">
<mask id="mask0_1_81" style="mask-type:luminance" maskUnits="userSpaceOnUse" x="0" y="0" width="105" height="100">
<g id="clip-path-3">
<path id="Rectangle 16" d="M104.5 0.5H0.5V99.5H104.5V0.5Z" fill="white"/>
</g>
</mask>
<g mask="url(#mask0_1_81)">
<g id="Mask Group 4">
<g id="Unofficial_JavaScript_logo_2">
<path id="Path 22" d="M0.0780029 0.656998H103.913V99.5H0.0780029V0.656998Z" fill="black"/>
<path id="Path 21" d="M69.829 77.879C71.921 81.13 74.642 83.519 79.454 83.519C83.497 83.519 86.08 81.595 86.08 78.938C86.08 75.753 83.426 74.625 78.98 72.772L76.541 71.772C69.496 68.92 64.818 65.343 64.818 57.781C64.818 50.815 70.394 45.512 79.108 45.512C85.308 45.512 89.772 47.567 92.986 52.949L85.386 57.593C83.713 54.738 81.908 53.613 79.106 53.613C76.248 53.613 74.437 55.339 74.437 57.593C74.437 60.379 76.25 61.508 80.437 63.233L82.876 64.228C91.166 67.612 95.847 71.062 95.847 78.819C95.847 87.181 88.947 91.763 79.678 91.763C70.616 91.763 64.762 87.652 61.897 82.263L69.829 77.879ZM35.361 78.679C36.894 81.268 38.288 83.456 41.641 83.456C44.847 83.456 46.869 82.262 46.869 77.62V46.042H56.626V77.748C56.626 87.366 50.702 91.743 42.056 91.743C34.243 91.748 29.718 87.896 27.418 83.261L35.361 78.679Z" fill="white"/>
</g>
</g>
</g>
</g>
</svg>
