<svg width="105" height="100" viewBox="0 0 105 100" fill="none" xmlns="http://www.w3.org/2000/svg">
<g id="Clip path group">
<mask id="mask0_1_92" style="mask-type:luminance" maskUnits="userSpaceOnUse" x="0" y="0" width="105" height="100">
<g id="clip-path-4">
<path id="Rectangle 17" d="M104.5 0.5H0.5V99.5H104.5V0.5Z" fill="white"/>
</g>
</mask>
<g mask="url(#mask0_1_92)">
<g id="Mask Group 5">
<g id="react-1">
<path id="Path 23" d="M1.185 1.152H104.5V99.5H1.185V1.152Z" fill="#222222"/>
<path id="Path 27" d="M52.763 42.042C54.9989 41.9883 57.1647 42.8242 58.7847 44.3662C60.4047 45.9082 61.3464 48.0302 61.403 50.266C61.3464 52.5018 60.4047 54.6238 58.7847 56.1658C57.1647 57.7078 54.9989 58.5437 52.763 58.49C50.5271 58.5437 48.3613 57.7078 46.7413 56.1658C45.1213 54.6238 44.1796 52.5018 44.123 50.266C44.1796 48.0302 45.1213 45.9082 46.7413 44.3662C48.3613 42.8242 50.5271 41.9883 52.763 42.042Z" fill="white"/>
<path id="Path 24" d="M52.762 33.546C64.362 33.546 75.135 35.131 83.262 37.791C93.049 40.998 99.068 45.86 99.068 50.263C99.068 54.851 92.69 60.017 82.18 63.33C74.234 65.836 63.78 67.146 52.767 67.146C41.478 67.146 30.791 65.918 22.754 63.303C12.582 59.996 6.45799 54.764 6.45799 50.264C6.45799 45.896 12.205 41.072 21.858 37.871C30.012 35.171 41.053 33.547 52.765 33.547L52.762 33.546Z" stroke="white" stroke-width="3.8" stroke-miterlimit="10"/>
<path id="Path 25" d="M37.474 41.955C43.267 32.391 50.094 24.297 56.574 18.929C64.383 12.461 71.815 9.929 75.82 12.129C79.994 14.42 81.51 22.261 79.275 32.586C77.585 40.392 73.553 49.668 68.052 58.748C62.413 68.057 55.952 76.256 49.562 81.578C41.474 88.308 33.651 90.743 29.556 88.499C25.582 86.317 24.063 79.169 25.967 69.61C26.244 68.22 27.1 64.973 27.1 64.973C27.1 64.973 32.627 49.95 37.474 41.955Z" stroke="white" stroke-width="3.8" stroke-miterlimit="10"/>
<path id="Path 26" d="M37.488 58.765C31.678 49.209 27.721 39.539 26.07 31.513C24.083 21.843 25.488 14.448 29.49 12.243C33.661 9.943 41.553 12.61 49.833 19.608C56.094 24.9 62.521 32.857 68.033 41.93C73.689 51.23 77.933 60.651 79.576 68.578C81.663 78.612 79.976 86.278 75.881 88.532C71.916 90.721 64.651 88.402 56.903 82.059C50.359 76.702 43.355 68.413 37.488 58.765Z" stroke="white" stroke-width="3.8" stroke-miterlimit="10"/>
</g>
</g>
</g>
</g>
</svg>
